<?xml version="1.0" standalone="no"?><!DOCTYPE svg PUBLIC "-//W3C//DTD SVG 1.1//EN" "http://www.w3.org/Graphics/SVG/1.1/DTD/svg11.dtd"><svg class="icon" width="200px" height="200.00px" viewBox="0 0 1024 1024" version="1.1" xmlns="http://www.w3.org/2000/svg"><path d="M592.64 581.568a256.384 256.384 0 0 0-63.104 93.12A524.16 524.16 0 0 0 512 674.368c-166.336 0-341.632 81.792-341.632 117.632v61.632H526.72c14.72 41.344 39.68 77.888 72 106.368H64v-164.544C64 649.536 362.496 576 512 576c23.68 0 51.2 1.856 80.64 5.568zM512 64c123.776 0 224 100.224 224 224S635.776 512 512 512a223.936 223.936 0 0 1-224-224C288 164.224 388.224 64 512 64z m0 106.432a117.568 117.568 0 1 0 0 235.136 117.568 117.568 0 0 0 0-235.136zM832 576v128h128v128h-128v128h-128v-128H576v-128h128V576h128z"  /></svg>