<?xml version="1.0" standalone="no"?><!DOCTYPE svg PUBLIC "-//W3C//DTD SVG 1.1//EN" "http://www.w3.org/Graphics/SVG/1.1/DTD/svg11.dtd"><svg class="icon" width="200px" height="200.00px" viewBox="0 0 1024 1024" version="1.1" xmlns="http://www.w3.org/2000/svg"><path d="M168.176581 709.482978V402.116972c0-148.766679 118.119466-272.760195 275.058735-301.236563V0.063848h137.529368v100.752713c156.875421 28.476369 275.058736 152.533732 275.058735 301.236563v307.429854H958.938521v126.100511H65.061479v-66.785384-59.315127h103.115102zM659.362015 896.30328c0 70.552438-61.613668 127.69672-137.529368 127.69672C445.853099 1024 384.30328 966.855718 384.30328 896.30328h275.058735zM612.688864 223.277715l-97.432598 0.383091-175.136052 272.249407 80.895873 0.638484h133.315376L436.46739 679.857339h98.90111L703.54508 416.99364l-204.953236-0.574635L612.752712 223.341564z"  /></svg>