<?xml version="1.0" standalone="no"?><!DOCTYPE svg PUBLIC "-//W3C//DTD SVG 1.1//EN" "http://www.w3.org/Graphics/SVG/1.1/DTD/svg11.dtd"><svg class="icon" width="200px" height="200.00px" viewBox="0 0 1024 1024" version="1.1" xmlns="http://www.w3.org/2000/svg"><path d="M803.904 779.904l-63.04-82.752c-16.832-18.56-26.24-43.52-26.24-69.376V434.56c0-61.952-20.736-118.4-57.728-158.912a189.248 189.248 0 0 0-62.976-45.568 212.096 212.096 0 0 0-164.928 0c-23.68 10.496-44.8 25.728-62.848 45.44-37.12 40.704-57.792 97.088-57.792 159.104v193.28c0 25.92-9.536 50.688-26.752 70.016l-62.848 82.624 585.152-0.576zM128 759.04l86.848-114.304 2.816-3.328a19.584 19.584 0 0 0 5.44-13.568V434.56c0-82.688 28.288-159.744 80.064-216.576a271.872 271.872 0 0 1 91.392-65.92c72.192-32 161.792-32 233.984 0 34.56 15.36 65.28 37.568 91.264 65.92 51.84 56.832 80 133.824 80 216.64v193.28c0 4.992 1.856 9.6 4.288 12.16l3.264 3.712 87.296 114.56 1.344 106.88-767.68 0.768L128 759.04z m213.184 179.712h341.12V1024H341.12v-85.312zM426.496 0h170.496v85.312H426.496V0z"  /></svg>