<?xml version="1.0" standalone="no"?><!DOCTYPE svg PUBLIC "-//W3C//DTD SVG 1.1//EN" "http://www.w3.org/Graphics/SVG/1.1/DTD/svg11.dtd"><svg class="icon" width="200px" height="200.00px" viewBox="0 0 1024 1024" version="1.1" xmlns="http://www.w3.org/2000/svg"><path d="M250.496 320h523.008l49.152-49.152 90.496 90.496L832 442.496V512h128v128h-128v6.464c0 38.016-6.592 74.432-18.752 108.224l99.84 99.968-90.432 90.496-78.464-78.464A319.488 319.488 0 0 1 576 960v-188.16a64 64 0 1 0-128 0V960a319.488 319.488 0 0 1-168.192-93.44l-78.464 78.528-90.496-90.496 99.904-99.968A319.424 319.424 0 0 1 192 646.464V640H64V512h128V442.496L110.848 361.344l90.496-90.496 49.152 49.152zM320 256a192 192 0 1 1 384 0H320z"  /></svg>