<?xml version="1.0" standalone="no"?><!DOCTYPE svg PUBLIC "-//W3C//DTD SVG 1.1//EN" "http://www.w3.org/Graphics/SVG/1.1/DTD/svg11.dtd"><svg class="icon" width="200px" height="200.00px" viewBox="0 0 1024 1024" version="1.1" xmlns="http://www.w3.org/2000/svg"><path d="M929.28 102.528H1024V1024H0V102.528h94.72l4.864-0.128h113.728V0H312.96v102.4h398.208V0h99.584v102.4h113.728c1.664 0 3.2 0 4.864 0.128zM924.416 921.6v-512H99.584v512h824.832z m0-614.4V204.8H99.584v102.4h824.832zM192 512h128v128H192V512z m256 0h128v128H448V512z m256 0h128v128h-128V512z m-512 192h128v128H192v-128z m256 0h128v128H448v-128z m256 0h128v128h-128v-128z"  /></svg>