<?xml version="1.0" standalone="no"?><!DOCTYPE svg PUBLIC "-//W3C//DTD SVG 1.1//EN" "http://www.w3.org/Graphics/SVG/1.1/DTD/svg11.dtd"><svg class="icon" width="200px" height="200.00px" viewBox="0 0 1024 1024" version="1.1" xmlns="http://www.w3.org/2000/svg"><path d="M960 514.752H448v153.088H64v-311.68h896v158.592zM320.96 712.32L320 712.704V1024H64v-311.68h256.96zM64 0h896v311.68H64V0z m134.4 133.568v44.544h89.6v-44.544H198.4z m0 356.16v44.544h89.6v-44.544H198.4z m0 356.16v44.544h89.6v-44.544H198.4z m825.6 28.864C1024 958.08 958.912 1024 876.288 1024h-320C461.44 1024 384 945.6 384 849.92c0-84.928 59.136-155.2 141.504-171.84A204.608 204.608 0 0 1 704 576c95.232 0 176.32 63.232 202.112 152.32A151.488 151.488 0 0 1 1024 874.752z"  /></svg>