<?xml version="1.0" standalone="no"?><!DOCTYPE svg PUBLIC "-//W3C//DTD SVG 1.1//EN" "http://www.w3.org/Graphics/SVG/1.1/DTD/svg11.dtd"><svg class="icon" width="200px" height="200.00px" viewBox="0 0 1024 1024" version="1.1" xmlns="http://www.w3.org/2000/svg"><path d="M883.584 674.944C732.16 864 512.448 1024 512.448 1024s-224.32-157.44-375.808-349.056h112.64c20.608 23.104 42.944 46.528 66.816 70.144a2134.336 2134.336 0 0 0 195.584 170.24 2402.88 2402.88 0 0 0 196.736-174.912c22.016-22.016 42.752-43.904 62.08-65.472h113.088z m126.4-218.24H919.04c13.056-32 19.52-60.8 19.52-85.504 0-122.56-89.6-219.904-197.44-219.904-62.592 0-120.704 32.96-158.208 88.896L512.448 345.28l-70.4-105.088c-37.568-55.936-95.616-88.96-158.272-88.96C159.488 151.296 86.4 223.36 86.4 371.2c0 25.472 5.952 54.08 17.92 85.504H14.08A305.536 305.536 0 0 1 0.96 371.2c0-211.2 126.656-307.2 282.88-307.2 94.08 0 177.152 50.112 228.608 126.848C563.904 114.112 647.04 64 741.12 64 897.28 64 1024 201.6 1024 371.2c0 27.776-4.992 56.384-14.08 85.504zM544.64 615.04h-55.808L382.72 448.384 272.64 614.976H0V527.68h227.2l156.864-237.184L522.24 507.392l114.944-137.408 134.4 157.696H1024v87.296h-291.328l-94.912-111.36-93.12 111.36z"  /></svg>