<?xml version="1.0" standalone="no"?><!DOCTYPE svg PUBLIC "-//W3C//DTD SVG 1.1//EN" "http://www.w3.org/Graphics/SVG/1.1/DTD/svg11.dtd"><svg t="1625293149549" class="icon" viewBox="0 0 1024 1024" version="1.1" xmlns="http://www.w3.org/2000/svg" p-id="6293" xmlns:xlink="http://www.w3.org/1999/xlink" width="200" height="200"><defs><style type="text/css"></style></defs><path d="M881.9712 0C932.1472 0 972.8 41.6768 972.8 93.0816v837.8368C972.8 982.3232 932.1472 1024 881.9712 1024H232.5504c-50.176 0-90.8288-41.6768-90.8288-93.0816l-0.0512-86.3232H85.248A34.5088 34.5088 0 0 1 51.2 809.7792c0-19.3024 15.2576-34.9184 34.048-34.9184h56.4224v-123.8528H85.248A34.5088 34.5088 0 0 1 51.2 616.0896c0-19.3024 15.2576-34.9184 34.048-34.9184l56.4224-0.0512V456.6528H85.248A34.5088 34.5088 0 0 1 51.2 421.8368c0-19.3024 15.2576-34.9184 34.048-34.9184l56.4224-0.0512V262.2464H85.248A34.5088 34.5088 0 0 1 51.2 227.3792c0-19.3024 15.2576-34.9184 34.048-34.9184l56.4224-0.0512 0.0512-99.328C141.7216 41.6768 182.3744 0 232.5504 0h649.4208z m-166.2976 69.8368H228.6592a17.6128 17.6128 0 0 0-12.5952 6.0416 21.9136 21.9136 0 0 0-6.144 13.7216v102.8096h43.2128a34.2016 34.2016 0 0 1 34.048 34.9696 34.5088 34.5088 0 0 1-34.048 34.8672H209.92v124.4672h44.6976l2.304 0.3584-3.7888-0.2048a33.28 33.28 0 0 1 16.0256 4.096l1.024 0.5632a27.136 27.136 0 0 1 6.3488 5.1712l-2.816-2.7136a35.0208 35.0208 0 0 1 13.3632 26.0608l-0.3584-4.096a34.6112 34.6112 0 0 1-30.5152 40.5504l-1.536 0.1024-0.8192 0.0512H209.92v124.4672h43.2128a33.28 33.28 0 0 1 15.7696 3.9936c3.1744 1.536 5.6832 3.3792 7.68 5.6832l-1.536-1.4848a35.1744 35.1744 0 0 1 11.0592 35.6352l-0.4608 1.536a34.9184 34.9184 0 0 1-14.6432 19.3536l-0.512 0.256a32.9728 32.9728 0 0 1-17.3568 4.864H209.92v123.8528h44.6976c0.4096 0 0.8192 0.1024 1.1776 0.2048l-2.6624-0.2048c18.7904 0 34.048 15.616 34.048 34.9184 0 11.3664-5.3248 21.504-13.568 27.8528l-0.6656 0.512a26.8288 26.8288 0 0 1-3.1744 2.048l-0.4096 0.2048a32.1536 32.1536 0 0 1-14.08 4.1984h-0.6656l-0.768 0.1024h-0.7168l-43.2128-0.0512v90.3168c0.3072 3.4304 1.536 6.656 3.6864 9.728l2.4576 2.9696c3.7376 3.9424 8.3456 6.144 13.824 6.656h485.7856V69.8368z m167.1168-0.1024h-99.2256v884.4288h101.0688c4.6592 0 9.0112-2.1504 13.1072-6.656a24.2176 24.2176 0 0 0 6.8608-13.6704V91.8528a24.8832 24.8832 0 0 0-6.8608-15.2576 21.248 21.248 0 0 0-14.9504-6.8608z" p-id="6294"></path></svg>