<?xml version="1.0" standalone="no"?><!DOCTYPE svg PUBLIC "-//W3C//DTD SVG 1.1//EN" "http://www.w3.org/Graphics/SVG/1.1/DTD/svg11.dtd"><svg class="icon" width="200px" height="200.00px" viewBox="0 0 1024 1024" version="1.1" xmlns="http://www.w3.org/2000/svg"><path d="M512 1024A512 512 0 1 1 512 0a512 512 0 0 1 0 1024z m0-85.312A426.688 426.688 0 1 0 512 85.312a426.688 426.688 0 0 0 0 853.376zM387.392 406.272L271.808 512.384l-58.496-58.432 259.2-240.64 0.064 85.44h0.448v512H387.392v-404.48z m254.208 212.288l115.072-104.832 52.928 63.36-253.12 233.792-0.512-98.496V213.44h85.632v405.12z"  /></svg>