<?xml version="1.0" standalone="no"?><!DOCTYPE svg PUBLIC "-//W3C//DTD SVG 1.1//EN" "http://www.w3.org/Graphics/SVG/1.1/DTD/svg11.dtd"><svg class="icon" width="200px" height="200.00px" viewBox="0 0 1024 1024" version="1.1" xmlns="http://www.w3.org/2000/svg"><path d="M862.464 823.936a167.872 167.872 0 0 1-51.84 8.064h-149.312V481.664h199.104V394.112c0-169.472-155.776-306.56-348.416-306.56S163.584 224.64 163.584 394.112v87.552h199.04V832H213.376C130.752 832 64 773.312 64 700.608v-306.56C64 176.512 264.576 0 512 0s448 176.448 448 394.112V896a128 128 0 0 1-128 128H477.568v-86.72h320.896a64 64 0 0 0 64-64v-49.344z"  /></svg>