<?xml version="1.0" standalone="no"?><!DOCTYPE svg PUBLIC "-//W3C//DTD SVG 1.1//EN" "http://www.w3.org/Graphics/SVG/1.1/DTD/svg11.dtd"><svg t="1628075302871" class="icon" viewBox="0 0 1024 1024" version="1.1" xmlns="http://www.w3.org/2000/svg" p-id="15226" xmlns:xlink="http://www.w3.org/1999/xlink" width="800" height="800"><defs><style type="text/css"></style></defs><path d="M944.25 422.24l-390-342.83a64 64 0 0 0-84.5 0l-390 342.83c-22.17 19.47-8.38 56 21.13 56H160V832a64 64 0 0 0 64 64h576a64 64 0 0 0 64-64V478.27h59.12c29.51 0 43.29-36.56 21.13-56.03z m-244.69 202C658.3 694.21 587.72 736 510.8 736c-74.86 0-144.39-40.06-186-107.15a32 32 0 1 1 54.4-33.72c29.85 48.12 79 76.87 131.6 76.87 54 0 104-30 133.64-80.25a32 32 0 1 1 55.12 32.5z" p-id="15227"></path></svg>