<?xml version="1.0" standalone="no"?><!DOCTYPE svg PUBLIC "-//W3C//DTD SVG 1.1//EN" "http://www.w3.org/Graphics/SVG/1.1/DTD/svg11.dtd"><svg class="icon" width="200px" height="200.00px" viewBox="0 0 1024 1024" version="1.1" xmlns="http://www.w3.org/2000/svg"><path d="M87.424 469.312a426.816 426.816 0 0 1 381.888-381.888V0h85.376v87.424a426.816 426.816 0 0 1 381.888 381.888H1024v85.376h-87.424a426.816 426.816 0 0 1-381.888 381.888V1024H469.312v-87.424a426.816 426.816 0 0 1-381.888-381.888H0V469.312h87.424zM512 778.688a266.688 266.688 0 1 0 0-533.376 266.688 266.688 0 0 0 0 533.376z m0-149.376a117.312 117.312 0 1 0 0-234.624 117.312 117.312 0 0 0 0 234.624z"  /></svg>