<?xml version="1.0" standalone="no"?><!DOCTYPE svg PUBLIC "-//W3C//DTD SVG 1.1//EN" "http://www.w3.org/Graphics/SVG/1.1/DTD/svg11.dtd"><svg class="icon" width="200px" height="200.00px" viewBox="0 0 1024 1024" version="1.1" xmlns="http://www.w3.org/2000/svg"><path d="M960 0v1024H64V0h896zM288 832a32 32 0 1 0 0 64 32 32 0 0 0 0-64z m97.28 0v64h398.08v-64H385.28zM288 704a32 32 0 1 0 0 64 32 32 0 0 0 0-64z m96 0v64h399.36v-64H384z m312.192-410.24C683.776 200.128 606.016 128 511.936 128S340.16 200.192 327.744 293.76C251.968 299.008 192 363.968 192 443.392c0 82.816 65.28 150.016 145.792 150.016 2.752 0 5.568-0.192 8.32-0.32v0.32h341.824v-0.128C767.616 592.384 832 525.632 832 443.328c-0.064-79.36-60.032-144.32-135.808-149.568z"  /></svg>