<?xml version="1.0" standalone="no"?><!DOCTYPE svg PUBLIC "-//W3C//DTD SVG 1.1//EN" "http://www.w3.org/Graphics/SVG/1.1/DTD/svg11.dtd"><svg class="icon" width="200px" height="200.00px" viewBox="0 0 1024 1024" version="1.1" xmlns="http://www.w3.org/2000/svg"><path d="M272 85.312v853.376h480V85.312h-480zM232 0h560c22.08 0 40 19.072 40 42.688v938.624c0 23.616-17.92 42.688-40 42.688h-560C209.92 1024 192 1004.928 192 981.312V42.688C192 19.072 209.92 0 232 0z m40 810.688h480v170.624h-480v-170.624z m240 128c22.08 0 40-19.136 40-42.688 0-23.552-17.92-42.688-40-42.688s-40 19.136-40 42.688c0 23.552 17.92 42.688 40 42.688zM614.336 256l55.744 55.808-251.072 251.072-55.808-55.744L614.4 256z m55.744 251.136l-55.744 55.744-251.136-251.072L419.008 256l251.072 251.136z"  /></svg>