<?xml version="1.0" standalone="no"?><!DOCTYPE svg PUBLIC "-//W3C//DTD SVG 1.1//EN" "http://www.w3.org/Graphics/SVG/1.1/DTD/svg11.dtd"><svg class="icon" width="200px" height="200.00px" viewBox="0 0 1024 1024" version="1.1" xmlns="http://www.w3.org/2000/svg"><path d="M661.952 149.952h180.096a32 32 0 0 1 32 32v180.096l127.36 127.36a32 32 0 0 1 0 45.248l-127.36 127.36v180.032a32 32 0 0 1-32 32h-180.096l-127.36 127.36a32 32 0 0 1-45.248 0l-127.36-127.36H182.016a32 32 0 0 1-32-32v-180.096l-127.36-127.36a32 32 0 0 1 0-45.248l127.36-127.36V182.016a32 32 0 0 1 32-32h180.096l127.36-127.36a32 32 0 0 1 45.248 0l127.36 127.36zM476.8 217.216a32 32 0 0 0-32 32v298.048a32 32 0 0 0 32 32h80.832a32 32 0 0 0 32-32V249.216a32 32 0 0 0-32-32H476.736z m0 434.432a32 32 0 0 0-32 32v80.832a32 32 0 0 0 32 32h80.832a32 32 0 0 0 32-32v-80.832a32 32 0 0 0-32-32H476.736z"  /></svg>