<?xml version="1.0" standalone="no"?><!DOCTYPE svg PUBLIC "-//W3C//DTD SVG 1.1//EN" "http://www.w3.org/Graphics/SVG/1.1/DTD/svg11.dtd"><svg class="icon" width="200px" height="200.00px" viewBox="0 0 1024 1024" version="1.1" xmlns="http://www.w3.org/2000/svg"><path d="M891.346319 491.098671C959.950803 416.222509 959.950803 295.076717 891.346319 220.200555c-68.796474-74.620176-180.086771-74.620176-248.819249 0L451.176877 428.573876 355.373787 532.760536a78.523976 78.523976 0 0 0 0 104.18666 63.99672 63.99672 0 0 0 95.675097 0l229.684228-250.035185a38.462029 38.462029 0 0 1 39.677967-12.415364 42.557819 42.557819 0 0 1 29.118508 31.742373 46.781602 46.781602 0 0 1-11.391417 43.13379l-229.684228 250.035185a142.584693 142.584693 0 0 1-105.274605 47.357573 142.584693 142.584693 0 0 1-105.210608-47.357573c-58.045025-63.356753-58.045025-165.879499 0-229.172255L527.652958 220.200555l57.469054-62.460799c100.218864-109.178405 263.4105-109.114408 363.629364 0 100.282861 109.114408 100.282861 286.64131 0 395.755717l-191.350193 208.309325-134.009132 145.848525C554.851564 982.337495 461.928326 1024.19135 364.973295 1023.99936c-96.891034 0.19199-189.878269-41.661865-258.354759-116.282041C37.822062 832.841157 0 733.006273 0 626.515731c0-106.490542 37.822062-206.389423 106.618536-281.265585L412.842842 11.955227a38.270039 38.270039 0 0 1 56.445107 1.023948 47.101586 47.101586 0 0 1 0.959951 61.436851L164.023594 407.838938c-53.309268 57.917032-83.195736 136.696994-82.811756 218.74079 0 82.875753 29.438491 160.567771 82.811756 218.676793 53.245271 58.045025 125.625562 90.491362 200.949701 90.171378 76.156097 0 147.576437-31.99836 200.949701-90.171378l133.241172-144.952572 94.011182-102.330755 21.566894-23.550793 76.604075-83.259733z"  /></svg>