<?xml version="1.0" standalone="no"?><!DOCTYPE svg PUBLIC "-//W3C//DTD SVG 1.1//EN" "http://www.w3.org/Graphics/SVG/1.1/DTD/svg11.dtd"><svg class="icon" width="200px" height="200.00px" viewBox="0 0 1024 1024" version="1.1" xmlns="http://www.w3.org/2000/svg"><path d="M626.24 773.632l37.888-71.168a64 64 0 0 1 72-32l174.72 43.52a64 64 0 0 1 48.512 62.08v71.936H960V960C465.152 960 64 558.848 64 64h112v0.256h70.4a64 64 0 0 1 62.08 48.512l43.52 174.72A64 64 0 0 1 320 359.488L249.92 396.8a787.136 787.136 0 0 0 376.32 376.832z m207.872-7.232l-54.848-13.696a32 32 0 0 0-35.968 16l-29.568 55.488 144.64 36.032v-62.784a32 32 0 0 0-24.32-31.04z m-569.472-528.64l-14.592-54.592a32 32 0 0 0-31.488-23.68l-62.784 1.024 38.592 144 54.912-30.464a32 32 0 0 0 15.36-36.288z"  /></svg>