<?xml version="1.0" standalone="no"?><!DOCTYPE svg PUBLIC "-//W3C//DTD SVG 1.1//EN" "http://www.w3.org/Graphics/SVG/1.1/DTD/svg11.dtd"><svg class="icon" width="200px" height="200.00px" viewBox="0 0 1024 1024" version="1.1" xmlns="http://www.w3.org/2000/svg"><path d="M512 1024A512 512 0 1 1 512 0a512 512 0 0 1 0 1024z m3.008-92.992a416 416 0 1 0 0-832 416 416 0 0 0 0 832zM457.792 684.8h130.56v128.128h-130.56V684.8zM320 397.44c0.576-29.952 5.696-57.408 15.36-82.368 9.728-24.96 23.296-46.592 40.832-64.896a183.68 183.68 0 0 1 63.168-42.88A213.76 213.76 0 0 1 522.24 192c39.36 0 72.256 5.376 98.56 16.192 26.368 10.88 47.616 24.32 63.68 40.384s27.584 33.408 34.56 52.032c6.912 18.56 10.368 35.84 10.368 51.968 0 26.624-3.456 48.512-10.432 65.728a162.048 162.048 0 0 1-59.904 75.328c-12.48 8.576-24.256 17.152-35.328 25.792a165.44 165.44 0 0 0-29.504 29.504c-8.64 11.072-14.08 24.96-16.256 41.6v31.616H465.6v-37.44c1.664-23.872 6.208-43.84 13.696-59.904 7.552-16.064 16.256-29.824 26.24-41.152 9.984-11.392 20.48-21.248 31.616-29.568 11.072-8.32 21.376-16.64 30.784-24.96 9.408-8.32 17.024-17.472 22.848-27.456 5.888-9.984 8.512-22.464 7.936-37.44 0-25.536-6.208-44.352-18.752-56.576-12.48-12.16-29.76-18.304-51.968-18.304-14.976 0-27.84 2.88-38.656 8.704a77.184 77.184 0 0 0-26.688 23.296 101.12 101.12 0 0 0-15.36 34.176 169.408 169.408 0 0 0-4.992 41.984H320z"  /></svg>