<?xml version="1.0" standalone="no"?><!DOCTYPE svg PUBLIC "-//W3C//DTD SVG 1.1//EN" "http://www.w3.org/Graphics/SVG/1.1/DTD/svg11.dtd"><svg class="icon" width="200px" height="200.00px" viewBox="0 0 1024 1024" version="1.1" xmlns="http://www.w3.org/2000/svg"><path d="M812.333229 702.996063c-46.845072 0-89.466408 18.430848-119.288544 51.132804L319.564027 536.79845a103.801512 103.801512 0 0 0 0-51.132804l373.480658-215.858509c29.822136 32.63796 72.443472 52.540716 119.288544 52.540716 90.87432-1.407912 159.094057-69.563652 160.501969-160.437972C971.491282 71.03556 903.271546 1.407912 812.333229 0c-90.87432 1.407912-160.437973 71.03556-161.90988 161.909881 0 9.91938 1.471908 19.83876 2.87982 29.822136L282.638335 404.774702A160.629961 160.629961 0 0 0 161.941879 350.698081C71.067558 352.169989 1.43991 420.453722 0.031998 511.328042c1.407912 90.87432 71.03556 159.030061 161.909881 160.501969 46.845072 0 90.87432-21.310668 120.696456-54.012625l370.664834 214.450597c-1.407912 9.983376-2.815824 19.83876-2.815824 31.230048 1.407912 90.87432 71.03556 159.094057 161.90988 160.501969 90.87432-1.407912 159.030061-69.563652 160.437973-160.501969-1.407912-90.87432-69.563652-159.030061-160.501969-160.437972z"  /></svg>