<?xml version="1.0" standalone="no"?><!DOCTYPE svg PUBLIC "-//W3C//DTD SVG 1.1//EN" "http://www.w3.org/Graphics/SVG/1.1/DTD/svg11.dtd"><svg class="icon" width="200px" height="200.00px" viewBox="0 0 1024 1024" version="1.1" xmlns="http://www.w3.org/2000/svg"><path d="M1022.4 176H283.072L255.488 64H0v112h160l131.84 600.96c-29.952 16.96-50.048 48.64-50.048 85.056 0 54.08 44.544 97.984 99.52 97.984 55.04 0 99.584-43.904 99.584-97.984 0-27.456-11.52-52.224-29.888-70.016h372.672a96.96 96.96 0 0 0-29.888 70.016c0 54.08 44.544 97.984 99.52 97.984 55.04 0 99.584-43.904 99.584-97.984a97.92 97.92 0 0 0-56.128-88.256l23.104-93.76H387.84l-11.648-56h556.288l89.984-448z"  /></svg>