<?xml version="1.0" standalone="no"?><!DOCTYPE svg PUBLIC "-//W3C//DTD SVG 1.1//EN" "http://www.w3.org/Graphics/SVG/1.1/DTD/svg11.dtd"><svg class="icon" width="200px" height="200.00px" viewBox="0 0 1024 1024" version="1.1" xmlns="http://www.w3.org/2000/svg"><path d="M511.488 0C794.624 0 1024 229.376 1024 512s-229.376 512-512.512 512C228.864 1024 0 794.624 0 512s228.864-512 511.488-512zM691.2 460.8a76.8 76.8 0 1 0 0-153.6 76.8 76.8 0 0 0 0 153.6z m-358.4 0a76.8 76.8 0 1 0 0-153.6 76.8 76.8 0 0 0 0 153.6z m179.2 256c-75.776 0-140.8-41.472-176.64-102.4H249.856a281.344 281.344 0 0 0 524.288 0H688.64c-35.84 60.928-100.864 102.4-176.64 102.4z"  /></svg>