<?xml version="1.0" standalone="no"?><!DOCTYPE svg PUBLIC "-//W3C//DTD SVG 1.1//EN" "http://www.w3.org/Graphics/SVG/1.1/DTD/svg11.dtd"><svg class="icon" width="200px" height="200.00px" viewBox="0 0 1024 1024" version="1.1" xmlns="http://www.w3.org/2000/svg"><path d="M512 1024A512 512 0 1 1 512 0a512 512 0 0 1 0 1024z m0-85.312A426.688 426.688 0 1 0 512 85.312a426.688 426.688 0 0 0 0 853.376zM320 576a64 64 0 1 1 0-128 64 64 0 0 1 0 128z m192 0a64 64 0 1 1 0-128 64 64 0 0 1 0 128z m192 0a64 64 0 1 1 0-128 64 64 0 0 1 0 128z"  /></svg>