<?xml version="1.0" standalone="no"?><!DOCTYPE svg PUBLIC "-//W3C//DTD SVG 1.1//EN" "http://www.w3.org/Graphics/SVG/1.1/DTD/svg11.dtd"><svg class="icon" width="200px" height="200.00px" viewBox="0 0 1024 1024" version="1.1" xmlns="http://www.w3.org/2000/svg"><path d="M512 1024A512 512 0 1 1 512 0a512 512 0 0 1 0 1024z m0-85.312A426.688 426.688 0 1 0 512 85.312a426.688 426.688 0 0 0 0 853.376zM691.2 460.8a76.8 76.8 0 1 1 0-153.6 76.8 76.8 0 0 1 0 153.6z m-358.4 0a76.8 76.8 0 1 1 0-153.6 76.8 76.8 0 0 1 0 153.6zM512 691.2c-75.776 0-140.8 41.472-176.64 102.4H249.856a281.344 281.344 0 0 1 524.288 0H688.64c-35.84-60.928-100.864-102.4-176.64-102.4z"  /></svg>